<svg width="368" height="213" viewBox="0 0 368 213" fill="none" xmlns="http://www.w3.org/2000/svg">
<g id="dpk-logo-light">
<path id="lt-bracket" d="M119 69.796V30.1209L0 107.771L119 187.121V145.745L62 107.771L119 69.796Z" fill="white"/>
<path id="rt-bracket" d="M249 73.5433V34.1209L368 111.276L249 190.121V149.009L306 111.276L249 73.5433Z" fill="white"/>
<g id="pill">
<g id="pill-part-two">
<g id="pill-bottom">
<rect id="Rectangle 9" width="63.7361" height="92.8899" transform="matrix(-0.926972 -0.37513 0.32971 -0.944082 191.02 183.258)" fill="#D9D9D9"/>
<ellipse id="Ellipse 5" cx="31.8681" cy="31.667" rx="31.8681" ry="31.667" transform="matrix(-0.926972 -0.37513 0.32971 -0.944082 180.579 213.154)" fill="#D9D9D9"/>
</g>
<g id="pill-top">
<rect id="Rectangle 9_2" width="63.7508" height="82.193" transform="matrix(0.925196 0.379489 -0.333792 0.942647 177.265 30.1967)" fill="white"/>
<ellipse id="Ellipse 5_2" cx="31.8754" cy="28.0203" rx="31.8754" ry="28.0203" transform="matrix(0.925196 0.37949 -0.333792 0.942647 186.618 3.78337)" fill="white"/>
</g>
</g>
<ellipse id="Ellipse 7" cx="194.164" cy="38.0255" rx="5.5" ry="5.86654" transform="rotate(-3.78888 194.164 38.0255)" fill="#D9D9D9"/>
<ellipse id="Ellipse 8" cx="206.338" cy="55.3919" rx="5.5" ry="5.86654" transform="rotate(-3.78888 206.338 55.3919)" fill="#D9D9D9"/>
<ellipse id="Ellipse 14" cx="219.603" cy="43.8237" rx="5.5" ry="5.86654" transform="rotate(-3.78888 219.603 43.8237)" fill="#D9D9D9"/>
<ellipse id="Ellipse 9" cx="178.67" cy="76.4658" rx="5.5" ry="5.86654" transform="rotate(-3.78888 178.67 76.4658)" fill="#D9D9D9"/>
<ellipse id="Ellipse 10" cx="202.466" cy="87.7177" rx="5.5" ry="5.86654" transform="rotate(-3.78888 202.466 87.7177)" fill="#D9D9D9"/>
<ellipse id="Ellipse 13" cx="194.283" cy="70.087" rx="5.5" ry="5.86654" transform="rotate(-3.78888 194.283 70.087)" fill="#D9D9D9"/>
<ellipse id="Ellipse 11" cx="174.304" cy="101.341" rx="5.5" ry="5.86654" transform="rotate(-3.78888 174.304 101.341)" fill="#D9D9D9"/>
<ellipse id="Ellipse 12" cx="193.04" cy="111.859" rx="5.5" ry="5.86654" transform="rotate(-3.78888 193.04 111.859)" fill="#D9D9D9"/>
</g>
</g>
</svg>
